<!DOCTYPE svg PUBLIC "-//W3C//DTD SVG 1.1//EN" "http://www.w3.org/Graphics/SVG/1.1/DTD/svg11.dtd">
<!-- Uploaded to: SVG Repo, www.svgrepo.com, Transformed by: SVG Repo Mixer Tools -->
<svg width="64px" height="64px" viewBox="-11.76 -11.76 47.52 47.52" xmlns="http://www.w3.org/2000/svg" fill="none">
<g id="SVGRepo_bgCarrier" stroke-width="0">
<rect x="-11.76" y="-11.76" width="47.52" height="47.52" rx="23.76" fill="#000000" strokewidth="0"/>
</g>
<g id="SVGRepo_tracerCarrier" stroke-linecap="round" stroke-linejoin="round"/>
<g id="SVGRepo_iconCarrier"> <path stroke="#ffffff" stroke-linecap="round" stroke-linejoin="round" stroke-width="2" d="M21 11.5V16a1 1 0 0 1-1 1h-1.5m2.5-5.5h-7m7 0-1.736-3.906A1 1 0 0 0 18.35 7H14M5.5 17H4a1 1 0 0 1-1-1V6a1 1 0 0 1 1-1h9a1 1 0 0 1 1 1v1M5.5 17a2 2 0 1 0 4 0m-4 0a2 2 0 1 1 4 0m0 0H14m0 0h.5m-.5 0v-5.5m.5 5.5a2 2 0 1 0 4 0m-4 0a2 2 0 1 1 4 0M14 11.5V7"/> </g>
</svg>